# xmcd
#
# Track frame offsets:
#	150
#	14019
#	34262
#	43874
#	57516
#	69156
#	85731
#	100292
#	120837
#	134036
#	154879
#	229345
#	244030
#	257295
#	282039
#	299734
#	315486
#
# Disc length: 4393 seconds
#
# Revision: 0
# Processed by: cddbd v1.5.2PL0 Copyright (c) Steve Scherf et al.
# Submitted via: dBpowerAMP V4.0
#
DISCID=f2112711
DTITLE=Moya De Pepe Villa, Gama - Cumbias Con Mariachi
DYEAR=1900
DGENRE=Latin
TTITLE0=Mariachi Loco
TTITLE1=Pescuezo De Pollo
TTITLE2=Felicidades
TTITLE3=La Culebra, No Bailes De Caballito
TTITLE4=Camaron Pelado
TTITLE5=Que Se Mueran Los Feos
TTITLE6=La Pelusa
TTITLE7=La Del Mono Colorado
TTITLE8=La Chica Fresa
TTITLE9=Los Caminos De La Vida
TTITLE10=Mariachi Mix - Sergio El Bailador La Del Mono Colorado El Mariachi Loco La Suavecita El Pipiripau Macarena La Bala Amor Prohibi
TTITLE11=Quiero Subirme Al Guayabo
TTITLE12=Ranchero Chido
TTITLE13=Hasta Que Te Conoci Negra Tomasa Bamboleo Caballo Viejo Llorando Se Fue
TTITLE14=La Que Le Gusta A Mi Vieja
TTITLE15=El Negrito
TTITLE16=Que Se Meta El Dedo
EXTD=
EXTT0=
EXTT1=
EXTT2=
EXTT3=
EXTT4=
EXTT5=
EXTT6=
EXTT7=
EXTT8=
EXTT9=
EXTT10=
EXTT11=
EXTT12=
EXTT13=
EXTT14=
EXTT15=
EXTT16=
PLAYORDER=
